HIERARCHY
ROOT Hips
{
    OFFSET 0.000000 0.000000 0.000000
    CHANNELS 6 Xposition Yposition Zposition Zrotation Xrotation Yrotation
    JOINT Spine
    {
        OFFSET -0.000000 8.267054 0.000000
        CHANNELS 3 Zrotation Xrotation Yrotation
        JOINT Spine1
        {
            OFFSET -0.000000 23.684998 0.000000
            CHANNELS 3 Zrotation Xrotation Yrotation
            JOINT Neck
            {
                OFFSET -0.000000 23.587730 2.144339
                CHANNELS 3 Zrotation Xrotation Yrotation
                JOINT Head
                {
                    OFFSET -0.000000 14.114483 -2.016355
                    CHANNELS 3 Zrotation Xrotation Yrotation
                    End Site
                    {
                        OFFSET -0.000000 25.204432 0.000000
                    }
                }
            }
            JOINT LeftShoulder
            {
                OFFSET 4.070090 22.062094 -0.247321
                CHANNELS 3 Zrotation Xrotation Yrotation
                JOINT LeftArm
                {
                    OFFSET 10.395479 0.000000 0.000000
                    CHANNELS 3 Zrotation Xrotation Yrotation
                    JOINT LeftForeArm
                    {
                        OFFSET 37.713577 0.000000 0.000000
                        CHANNELS 3 Zrotation Xrotation Yrotation
                        JOINT LeftHand
                        {
                            OFFSET 20.284107 0.000000 0.000000
                            CHANNELS 3 Zrotation Xrotation Yrotation
                            End Site
                            {
                                OFFSET 15.122660 0.000000 0.000000
                            }
                        }
                    }
                }
            }
            JOINT RightShoulder
            {
                OFFSET -3.979272 22.062094 -0.247321
                CHANNELS 3 Zrotation Xrotation Yrotation
                JOINT RightArm
                {
                    OFFSET -10.395479 0.000000 0.000000
                    CHANNELS 3 Zrotation Xrotation Yrotation
                    JOINT RightForeArm
                    {
                        OFFSET -37.713577 0.000000 0.000000
                        CHANNELS 3 Zrotation Xrotation Yrotation
                        JOINT RightHand
                        {
                            OFFSET -20.284107 0.000000 0.000000
                            CHANNELS 3 Zrotation Xrotation Yrotation
                            End Site
                            {
                                OFFSET -15.122660 0.000000 0.000000
                            }
                        }
                    }
                }
            }
        }
    }
    JOINT LeftUpLeg
    {
        OFFSET 10.081773 0.000000 0.000000
        CHANNELS 3 Zrotation Xrotation Yrotation
        JOINT LeftLeg
        {
            OFFSET -0.000000 -36.382099 0.000000
            CHANNELS 3 Zrotation Xrotation Yrotation
            JOINT LeftFoot
            {
                OFFSET -0.000000 -49.182560 0.000000
                CHANNELS 3 Zrotation Xrotation Yrotation
                JOINT LeftToeBase
                {
                    OFFSET -0.000000 -6.553152 15.122660
                    CHANNELS 3 Zrotation Xrotation Yrotation
                    End Site
                    {
                        OFFSET -0.000000 0.000000 4.032709
                    }
                }
            }
        }
    }
    JOINT RightUpLeg
    {
        OFFSET -10.081773 0.000000 0.000000
        CHANNELS 3 Zrotation Xrotation Yrotation
        JOINT RightLeg
        {
            OFFSET -0.000000 -36.382099 0.000000
            CHANNELS 3 Zrotation Xrotation Yrotation
            JOINT RightFoot
            {
                OFFSET -0.000000 -49.182560 0.000000
                CHANNELS 3 Zrotation Xrotation Yrotation
                JOINT RightToeBase
                {
                    OFFSET -0.000000 -6.553152 15.122660
                    CHANNELS 3 Zrotation Xrotation Yrotation
                    End Site
                    {
                        OFFSET -0.000000 0.000000 4.032709
                    }
                }
            }
        }
    }
}
MOTION
Frames:    4
Frame Time:    0.008333
6.386077    92.326736    17.334894    -0.466704    -1.657348    -174.983292    -1.360276    -8.622483    -0.034743    -1.128853    -0.063966    0.067240    2.332351    23.882170    -6.477089    5.111858    -4.278898    -5.655369    19.855251    -2.618454    -7.695300    -25.576160    0.025099    -0.810684    1.440435    -0.304923    3.282160    -9.917234    -0.317341    -0.332345    -15.028831    -0.573780    -1.849434    27.990799    -0.203222    0.983930    -0.816996    -1.517414    -4.088629    2.434618    -1.405092    6.652709    -0.686799    -4.532549    0.680630    2.012035    14.592187    4.844184    -1.643182    -11.055530    -2.977256    0.000000    0.000000    0.000000    -2.333954    -2.291193    -1.730240    -0.360666    12.100520    7.812466    0.494886    -10.522405    -13.912705    0.000000    0.000000    0.000000    
6.384075    92.325768    17.327976    -0.466518    -1.658789    -174.991028    -1.356163    -8.627566    -0.030977    -1.137724    -0.059652    0.071719    2.198904    24.165869    -6.530850    5.421735    -4.685299    -5.640853    19.849125    -2.611879    -7.689538    -25.561256    0.020468    -0.804298    1.447754    -0.302588    3.293033    -9.901919    -0.315294    -0.334733    -15.030131    -0.568083    -1.855822    27.995659    -0.206663    0.975434    -0.810138    -1.520423    -4.091180    2.451370    -1.406644    6.663675    -0.686511    -4.527218    0.653841    2.002581    14.591682    4.875198    -1.645458    -11.063435    -2.974778    0.000000    0.000000    0.000000    -2.332658    -2.292120    -1.729561    -0.364752    12.104702    7.822383    0.489250    -10.526441    -13.916380    0.000000    0.000000    0.000000    
6.382092    92.324844    17.321089    -0.466282    -1.660260    -174.998688    -1.352323    -8.632688    -0.026747    -1.145930    -0.055546    0.075731    2.092813    24.392025    -6.573696    5.672688    -5.011312    -5.627433    19.842791    -2.605839    -7.683876    -25.546726    0.013227    -0.798011    1.453880    -0.300130    3.304534    -9.882615    -0.313232    -0.335905    -15.031696    -0.561931    -1.861956    28.000656    -0.210390    0.967018    -0.803205    -1.524026    -4.094231    2.468192    -1.408826    6.674282    -0.686174    -4.522171    0.630442    1.994017    14.591220    4.903086    -1.646891    -11.070421    -2.972463    0.000000    0.000000    0.000000    -2.331400    -2.292746    -1.727564    -0.368321    12.108349    7.830918    0.485134    -10.530072    -13.920190    0.000000    0.000000    0.000000    
6.380013    92.323944    17.313725    -0.466038    -1.661988    -175.006943    -1.348960    -8.638211    -0.021531    -1.153518    -0.051702    0.079549    2.011759    24.566128    -6.607277    5.870857    -5.265752    -5.615939    19.835648    -2.599635    -7.678131    -25.531862    -0.000149    -0.791521    1.458811    -0.297377    3.317896    -9.855300    -0.310799    -0.334081    -15.033474    -0.554770    -1.868338    28.006090    -0.214465    0.958047    -0.795400    -1.528402    -4.098420    2.485950    -1.411680    6.685143    -0.686010    -4.517078    0.611162    1.986653    14.590576    4.927597    -1.646937    -11.076692    -2.970144    0.000000    0.000000    0.000000    -2.329991    -2.293283    -1.724012    -0.372028    12.111958    7.838319    0.482365    -10.533975    -13.923785    0.000000    0.000000    0.000000    
